<svg xmlns="http://www.w3.org/2000/svg" viewBox="0 0 38 39" fill="none" class="site-nav-dropdown-icon"><path d="M13.848 2.663C5.054 2.663.373 1.045.373 1.045v36.362c7.468 1.312 11.512.625 15.639-.076 2.48-.422 4.991-.849 8.294-.849 8.793 0 13.474 1.618 13.474 1.618V1.738c-7.467-1.312-11.512-.625-15.638.077-2.481.421-4.992.848-8.294.848z" fill="#82D1D1"></path><mask id="a" maskUnits="userSpaceOnUse" x="0" y="0" width="38" height="39"><path d="M13.848 2.663C5.054 2.663.373 1.045.373 1.045v36.362c7.468 1.312 11.512.625 15.639-.076 2.48-.422 4.991-.849 8.294-.849 8.793 0 13.474 1.618 13.474 1.618V1.738c-7.467-1.312-11.512-.625-15.638.077-2.481.421-4.992.848-8.294.848z" fill="#82D1D1"></path></mask><g mask="url(#a)" fill="#4BB7BF"><path d="M-4.637-.004l19.932-2.427 5.01 41.15L.373 41.144z"></path><path d="M2.292-3.448l11.817-4.536L32.682 40.4l-11.817 4.537z"></path></g><path d="M19.08 8.028v23.04" stroke="#fff" stroke-width="2.2"></path><path d="M13.523 23.467c.709 5.128 11.113 5.121 11.113 0 0-1.985-1.132-4.1-5.634-4.1-4.087 0-5.153-2.14-5.153-3.777 0-4.793 8.983-5.148 10.394-.43" stroke="#fff" stroke-width="2.3"></path></svg>