<svg xmlns="http://www.w3.org/2000/svg" width="96" height="23.451" viewBox="0 0 96 23.451">
  <path id="typologo" d="M95.851,18.514c-4.012,6.8-10.365,4.828-12.273,3.283-.812.551-2.236,1.759-4.135,1.619-4.044-.3-5.492-6.076-5.492-6.076a6.326,6.326,0,0,1-1.871.419c-.009,1.695-1.474,5.743-5.427,5.691-4.436-.058-5.338-6.667-5.338-6.667a4.672,4.672,0,0,1-2.12,1.224c.084-1.3.023,5.246-5.294,5.342-4.2.076-5.338-6.667-5.338-6.667A4.192,4.192,0,0,1,46.42,17.7c.09-1.323-.056,5.669-5.374,5.647-3.594-.015-4.822-4.154-4.726-4.728.122-.732-1.214,4.831-4.705,4.745a3.821,3.821,0,0,1-3.188-2.476c-.9,1.032-2.212,2.476-3.681,2.476-2.637,0-3.8-2.206-3.6-8.507.017-.747-.037-1.041-.78-1.153-.446-.074-.9-.215-1.386-.29-.155.517-1.468,9.781-5.985,9.957-1.515.059-2.344-1.253-3.024-2.228a5.233,5.233,0,0,1-4.381,2.272c-3.322,0-5.586-2.686-5.586-6s2.264-6,5.586-6a3.541,3.541,0,0,1,1.289.241C5.771,1.611,8.378.04,10.658.04c2.189,0,5.929,5.08.667,17.967,1.168,3.844,3.687,3.626,4.9-4.286.246-1.608-.412-3.779.612-4.082,1.873-.554,2.071,1.107,2.949,1.384a19.757,19.757,0,0,0,2.362.45c1.523.3,2.117,1.116,1.932,2.938-.223,2.306-.612,5.662.576,6.071.857.3,2.422-1.48,2.7-2.453A6.915,6.915,0,0,0,27.7,16.01a18.91,18.91,0,0,1,.344-3.8c.111-.446.238-.741.743-.762.415-.011,1.175-.136,1.509.125.446.335.39.675.339,1.569-.518,12.75,3.471,6.385,4.66,1.289C34.876,8.673,35.167.146,38.778,0a2.666,2.666,0,0,1,2.8,2.553c.258,3.172-1.189,8.426-3.092,11.959-1.088,7.209,4.755,8.635,5.689,2.88-1.529-.727-3.181-3.669-1.836-5.1.754-.8,3.895.351,3.946,2.872a2.963,2.963,0,0,0,1.767-1.137C47.629,8.265,48.021.146,51.633,0a2.666,2.666,0,0,1,2.8,2.553c.258,3.172-1.189,8.426-3.091,11.959C50.253,21.724,56.1,23.15,57.03,17.4c-1.132-.218-3.521-3.347-2.143-5.1.737-.938,3.865,1.012,4.216,2.956a2.959,2.959,0,0,0,1.7-1.119C60.382,8.367,60.774.248,64.385.1a2.666,2.666,0,0,1,2.8,2.553C67.443,5.83,66,11.084,64.093,14.617c-1.088,7.209,4.755,8.635,5.69,2.88-1.555-.259-3.766-3.563-1.987-5.253.711-.675,3.427,1.078,4.062,3.078a4.309,4.309,0,0,0,1.551-.369C72,8.188,73.049.071,76.934,0c2.1-.037,4.153,1.135,3.251,7.571-.86,6.141-3.952,8.718-3.945,8.757.18.736,1.766,6.892,5.761,3.644a7.114,7.114,0,0,1-.529-1.526c-.662-3.376.638-7.189,4.173-7.805A3.387,3.387,0,0,1,89.881,13.5c.5,3.637-2.788,6.272-4.037,6.843-.559-.318,5.071,3.293,8.413-3.943.194-.413.427-.378.73-.165C95.2,16.385,96.418,17.538,95.851,18.514ZM8,16.523c-.17-.508-.519-1.628-.642-2.114a2.6,2.6,0,0,0-2.037-.687c-1.938,0-3.079,1.792-3.079,3.725s1.243,3.725,3.181,3.725a3.422,3.422,0,0,0,3.348-2.759C8.5,17.783,8.23,17.2,8,16.523ZM10.61,2.7c-1.362,0-1.824,3.249-1.734,6.021A18.612,18.612,0,0,0,10,14.3c.09.121.073.042.154.171C12.514,9.285,11.533,2.7,10.61,2.7Zm28.362.1c-1.76-.2-1.749,7.131-1.531,8.776.914-1.463,2.5-8.382,1.531-8.776Zm12.855,0c-1.76-.2-1.749,7.131-1.53,8.776C51.211,10.116,52.8,3.2,51.827,2.8Zm12.753.1c-1.76-.2-1.749,7.131-1.53,8.776.914-1.463,2.5-8.382,1.53-8.776Zm12.549-.531c-2.743.551-2.1,9.7-1.687,11.3,3.231-4.437,3.3-11.466,1.688-11.3ZM87.407,13.8a1.221,1.221,0,0,0-1.318-.818c-1.377.188-2.713,1.9-2.2,4.514a4.241,4.241,0,0,0,.4,1.1C87.374,16.528,87.636,14.9,87.407,13.8ZM29.331,9.435a1.99,1.99,0,1,1,.761-.151,1.99,1.99,0,0,1-.761.151Z" fill="#ea4c89" fill-rule="evenodd"/>
</svg>
