<svg xmlns="http://www.w3.org/2000/svg" viewBox="0 0 40 40" fill="none" class="site-nav-dropdown-icon"><path d="M28.761 16.207L13.461 40h15.3V16.207z" fill="#FFD469"></path><path d="M28.762 10.326h10.741V35.8A4.2 4.2 0 0135.304 40h-6.542V10.326z" fill="#FEBA57"></path><path d="M11.238.903h24.066a4.199 4.199 0 014.199 4.199v5.224H11.238V.903z" fill="#FFD469"></path><path d="M.497 5.102c0-2.32 1.88-4.2 4.2-4.2h6.542v15.962H.496V5.102z" fill="#FEBA57"></path><path d="M.497 16.864h20.406l-9.664 13.848H.496V16.864z" fill="#FFD469"></path><path d="M.497 30.712h19.14L13.776 40h-9.08a4.199 4.199 0 01-4.2-4.199v-5.09z" fill="#FEBA57"></path></svg>