<svg xmlns="http://www.w3.org/2000/svg" viewBox="0 0 35 35" fill="none" class="site-nav-dropdown-icon"><path d="M33.241 14h-2.617v5.523a4.114 4.114 0 01-4.102 4.102H7v9.617c0 .967.791 1.758 1.758 1.758H33.24c.967 0 1.758-.791 1.758-1.758V15.758c0-.967-.791-1.758-1.758-1.758z" fill="#787EFF"></path><path d="M26.25 21H1.75C.787 21 0 20.212 0 19.25V1.75C0 .787.787 0 1.75 0h24.5C27.212 0 28 .787 28 1.75v17.5c0 .962-.788 1.75-1.75 1.75z" fill="#EA4C89"></path><path d="M17.126 5.53c-1.315-.153-2.172.49-3.15 1.53-1.04-1.04-1.836-1.683-3.151-1.53-1.805.183-3.212 2.263-2.906 4.068.49 2.875 3.028 4.588 6.087 6.118 3.059-1.53 5.598-3.243 6.087-6.118.275-1.805-1.162-3.885-2.967-4.068z" fill="#fff"></path></svg>