<svg xmlns="http://www.w3.org/2000/svg" width="16" height="16" viewBox="0 0 16 16">
  <path id="instagramsocial" d="M8,0C5.827,0,5.555.01,4.7.048A5.9,5.9,0,0,0,2.76.42a3.908,3.908,0,0,0-1.417.923A3.886,3.886,0,0,0,.42,2.76,5.873,5.873,0,0,0,.048,4.7C.008,5.555,0,5.827,0,8s.01,2.445.048,3.3A5.894,5.894,0,0,0,.42,13.24a3.908,3.908,0,0,0,.923,1.417,3.886,3.886,0,0,0,1.417.923,5.873,5.873,0,0,0,1.942.372c.853.04,1.125.048,3.3.048s2.445-.01,3.3-.048a5.894,5.894,0,0,0,1.942-.372,4.094,4.094,0,0,0,2.34-2.34,5.873,5.873,0,0,0,.372-1.942c.04-.853.048-1.125.048-3.3s-.01-2.445-.048-3.3A5.894,5.894,0,0,0,15.58,2.76a3.908,3.908,0,0,0-.923-1.417A3.886,3.886,0,0,0,13.24.42,5.873,5.873,0,0,0,11.3.048C10.445.008,10.173,0,8,0ZM8,1.44c2.136,0,2.39.01,3.233.048a4.419,4.419,0,0,1,1.485.276,2.472,2.472,0,0,1,.92.6,2.472,2.472,0,0,1,.6.92,4.419,4.419,0,0,1,.276,1.485c.038.844.047,1.1.047,3.233s-.01,2.39-.048,3.233a4.419,4.419,0,0,1-.276,1.485,2.644,2.644,0,0,1-1.518,1.518,4.419,4.419,0,0,1-1.485.276c-.844.038-1.1.047-3.233.047s-2.39-.01-3.233-.048a4.419,4.419,0,0,1-1.485-.276,2.472,2.472,0,0,1-.92-.6,2.472,2.472,0,0,1-.6-.92,4.419,4.419,0,0,1-.276-1.485C1.45,10.39,1.44,10.136,1.44,8s.01-2.39.048-3.233a4.419,4.419,0,0,1,.276-1.485,2.472,2.472,0,0,1,.6-.92,2.472,2.472,0,0,1,.92-.6,4.419,4.419,0,0,1,1.485-.276C5.61,1.45,5.864,1.44,8,1.44ZM8,3.892A4.108,4.108,0,1,0,12.108,8,4.108,4.108,0,0,0,8,3.892Zm0,6.775A2.667,2.667,0,1,1,10.667,8,2.667,2.667,0,0,1,8,10.667ZM13.23,3.73a.96.96,0,1,1-.96-.96A.96.96,0,0,1,13.23,3.73Z" fill="#3d3d4e" fill-rule="evenodd"/>
</svg>
